# xmcd
#
# Track frame offsets: 
#        150
#        16831
#        31022
#        56894
#        77178
#        111915
#        131939
#        146955
#        167663
#        191658
#        217144
#        232687
#
# Disc length: 3333 seconds
#
# Revision: 2
# Processed by: cddbd v1.5.2PL0 Copyright (c) Steve Scherf et al.
# Submitted via: ExactAudioCopyFreeDBPlugin 1.0
#
DISCID=ab0d030c
DTITLE=Jim White - Transnormal Skiperoo
DYEAR=2007
DGENRE=Country
TTITLE0=A Town Called Amen
TTITLE1=Blindly We Go
TTITLE2=Jailbird
TTITLE3=Crash Into The Sun
TTITLE4=Fruit Of The Vine
TTITLE5=Take Me Away
TTITLE6=Turqouise House
TTITLE7=Diamonds To Coal
TTITLE8=Counting Numbers In The Air
TTITLE9=Plywood Superman
TTITLE10=Pieces of Heaven
TTITLE11=It's Been A Long Long Day
EXTD=YEAR: 2007
EXTT0=
EXTT1=
EXTT2=
EXTT3=
EXTT4=
EXTT5=
EXTT6=
EXTT7=
EXTT8=
EXTT9=
EXTT10=
EXTT11=
PLAYORDER=
